<?xml version="1.0" encoding="utf-8"?>
<!-- Generator: Adobe Illustrator 24.1.2, SVG Export Plug-In . SVG Version: 6.00 Build 0)  -->
<svg version="1.1" id="Ebene_1" xmlns="http://www.w3.org/2000/svg" xmlns:xlink="http://www.w3.org/1999/xlink" x="0px" y="0px"
	 viewBox="0 0 400 800" style="enable-background:new 0 0 400 800;" xml:space="preserve">
<style type="text/css">
	.st0{fill:none;stroke:#6A51E1;stroke-width:3;stroke-linecap:round;stroke-miterlimit:10;stroke-dasharray:2.000000e-02,12.42;}
	.st1{fill:none;stroke:#6A51E1;stroke-width:3;stroke-linecap:round;stroke-miterlimit:10;stroke-dasharray:2.000000e-02,12.4;}
	.st2{fill:none;stroke:#6A51E1;stroke-width:3;stroke-linecap:round;stroke-miterlimit:10;stroke-dasharray:2.000000e-02,12.37;}
	.st3{fill:none;stroke:#6A51E1;stroke-width:3;stroke-linecap:round;stroke-miterlimit:10;stroke-dasharray:2.000000e-02,12.32;}
	.st4{fill:none;stroke:#6A51E1;stroke-width:3;stroke-linecap:round;stroke-miterlimit:10;stroke-dasharray:2.000000e-02,12.35;}
	.st5{fill:none;stroke:#6A51E1;stroke-width:3;stroke-linecap:round;stroke-miterlimit:10;stroke-dasharray:2.000000e-02,12.5;}
</style>
<path class="st0" d="M83.9,800c9.2-6,18.5-11.5,27.9-16.8c8.7-4.9,17.4-9.6,26.3-14.4c62.1-17.3,80.6-93.7,96.8-191.5
	c2.3-13.7,8-63,6.2-76.7c-6-22.6-54.4-76.8-60.3-86.3c-27.6-44.2-42.6-81.4-41.1-156.7c-0.7-13.2,13.7-107,12-117.7
	C139.5,60.7,57.9,112.2,0,144.1"/>
<path class="st0" d="M0,800"/>
<path class="st1" d="M30.7,800c0.5-0.5,1-1,1.6-1.5c20.7-18.7,42-34.6,63.9-47.6c7.3-4.3,14.6-9.3,22.2-12.6
	c9.9-4.3,18.7-8,26.4-14.4c32-26.8,45-81,56.9-146.7c2.2-11.9,7.1-52.5,6-64.6c-4.2-20-41.4-64.8-47.4-76.3l-0.3-0.6
	c-21.1-39-31.7-70.9-35.8-133.6c-0.8-12,8.6-87.5,6.3-97C115.2,142.7,48.6,184.7,0,209"/>
<path class="st1" d="M0,800"/>
<path class="st2" d="M0,799.5c8.7-16.1,17.7-31,28.2-40.6c16.9-15.6,34.4-29,52.3-40.1c6-3.7,11.9-7.9,18.1-10.8
	c8-3.8,15.2-7.1,21.5-12.5c26.2-22.4,37.7-65.7,48.3-118.2c2.1-10.2,6.2-41.9,5.7-52.4c-2.6-17.6-30-54.6-34.9-66.8l-0.2-0.6
	c-15-32.4-24-60.6-30.4-110.5c-1.4-10.8,3.8-67.9,0.7-76.3C92.3,224.6,39.7,257.1,0,273.9"/>
<path class="st1" d="M0,754.4c7.5-13.8,15.2-26.6,24.2-35.1c13.1-12.5,26.7-23.4,40.6-32.6c4.6-3,9.2-6.5,14-9
	c5.7-2.7,11.2-6.2,16.6-10.5c20.5-17.9,30.5-50.4,39.8-89.7c2-8.5,5.4-31.3,5.5-40.3c-1-15.3-18.7-44.2-22.4-57.3
	c-0.1-0.2-0.1-0.4-0.2-0.6c-9.5-24.7-16.9-50.2-25.1-87.4c-2.1-9.6-0.9-48.2-5-55.7c-16.9-30.7-56.6-6.7-87.9,2.8"/>
<path class="st2" d="M0,709.3c6.2-11.4,12.7-22.1,20.1-29.6c9.4-9.4,19-17.8,29-25.1c3.3-2.4,6.6-5.1,9.9-7.3
	c4-2.4,7.9-5.3,11.7-8.6c14.7-13.5,23.6-34.9,31.2-61.2c2.3-8.9,4.1-18.4,5.2-28.1c0.7-13-7.5-33.7-9.8-47.8c0-0.2-0.1-0.4-0.1-0.6
	c-4.7-15.9-10.5-39.2-19.8-64.3c-3-8.3-5.3-29.3-10.6-35C50.9,384.4,23.2,401.1,0,404"/>
<path class="st3" d="M0,663.5c12.6-24.7,30.6-37.6,46-53.3c8.9-9,16.9-19,22.6-32.6s8.8-30.7,7.7-54.2c-0.7-8.1-7.7-46.1-30.8-56.1
	c-14.9-7-30.5,4.2-45.5,1.5"/>
<path class="st0" d="M227.9,0c-5.7,6.8-11.2,13.9-15.9,25.3c-16.7,45.2-35.9,107.7-43.9,168.5c-2,14.8-3.2,29.9-3.7,45.1
	c-0.5,66,15.9,116.3,40.4,155.5c6.2,9.9,12.8,19.1,19.7,27.4c38.4,49,86.9,46.7,124,99.2c18.6,28,32.2,73,51.5,95.3"/>
<path class="st0" d="M400,0"/>
<path class="st2" d="M294.9,0c-1.5,1.5-3,3-4.5,4.6c-6.8,7.4-13.6,15.2-20.3,23.8C262,39,253.6,45.6,247.1,61.1
	c-15,36.6-30.9,88-38.3,138.2c-1.8,12.2-3,24.7-3.6,37.4c-2.7,60.4,14.6,104.8,38,138.1c5.9,8.5,12.3,15.7,18.5,23
	c30.5,35.4,67.8,35.2,96.4,75.7c15.1,21.4,26,55.5,41.9,72"/>
<path class="st2" d="M400,0"/>
<path class="st4" d="M400,9.4c-4.6,3.2-9.6,5.3-15,5.7c-3.4-0.4-7.4-0.8-10.8-1.1c-5.7,1.2-10.8,1.2-16.4,4.1
	c-7.1,3.9-14,8.7-20.7,14.6c-6.9,5.7-13.6,12.2-20.1,19.4c-5.3,6.1-10.8,12.5-16.1,19.3c-6.5,8.3-13.1,14-18.4,25.7
	c-12.8,28.7-26,68.4-32.6,108c-1.6,9.6-2.8,19.5-3.5,29.5c-4.4,54.9,13.3,93.5,35.5,120.7c5.6,6.9,11.6,12.4,17.3,18.4
	c22.1,23.4,48.1,24.8,68.7,52.1c11.5,15.3,19.9,39.5,32.2,50"/>
<path class="st1" d="M400,58.9c-2.3,1.3-4.7,2.4-7.2,3.3c-2.5,0.6-5.4,1.2-7.9,1.9c-4,1.6-8,3.6-11.8,6.1
	c-5.1,3.8-10.1,8.2-14.9,13.1c-5,4.9-9.9,10.2-14.6,15.9c-4,4.8-7.9,9.8-11.9,14.9c-4.8,6-9.7,10.8-13.9,19
	c-11.6,22.4-20.7,48.8-26.9,77.7c-1.4,7.1-2.5,14.3-3.4,21.7c-6.4,49.5,12.1,82,33.2,103.2c5.4,5.3,11,9.3,16.1,13.9
	c13.4,12.2,28.5,14.2,41.1,28.6c7.8,8.8,13.7,22.8,22.4,27.2"/>
<path class="st1" d="M400,110c-13.5,12.7-25.3,31-37.8,47.2c-15.4,16.8-27.3,42.6-34,73.3c-11.6,54.7,23,83.4,45.6,95.1
	c7.9,3.9,16,6.2,24.2,7c0.7,0.1,1.4,0.1,2.1,0.2"/>
<path class="st1" d="M400,172.4c-7,6.6-13.2,16.1-19.7,24.6c-8,8.7-14.2,22.2-17.7,38.2c-6,28.5,12,43.4,23.7,49.5
	c4.1,2,8.3,3.2,12.6,3.7c0.4,0,0.7,0.1,1.1,0.1"/>
<path class="st1" d="M400,670.5c-10.5-16.8-21.1-33.9-30.3-53.6c-22.2-47.4-51.6-120.3-90.2-108.8c-26.9,7.9-33.8,139.4-46.8,178.3
	c-8.5,25.5-18,49.9-26.3,75.6c-3.9,12.2-7.4,24.9-10.4,38"/>
<path class="st1" d="M400,739.8c-8.7-15.1-17.7-30.3-25.4-47.8c-16.9-42-41.6-102.1-73.6-94.7c-10.2,2.4-17.1,25.8-22.8,52.2
	c-5.9,27-10.5,57.5-16.2,71.9c-8,20.3-17,40.9-23.2,63.5c-1.3,4.7-2.5,9.5-3.5,14.4c0,0.2-0.1,0.4-0.1,0.6"/>
<path class="st3" d="M394.3,800c-5.1-10.5-10.3-21.2-15-32.9c-11.6-36.7-31.6-83.7-57.1-80.5c-7.1,0.9-12.4,13.7-17.2,28.1
	c-4.9,15.1-9.1,32.6-13.9,41.9c-6.6,12.9-13.7,27.3-18.4,43.5"/>
<path class="st5" d="M369.8,800c-7.2-13.5-16.1-23.2-26.1-24.1c-4-0.2-7.9,1.1-11.5,4c-4.1,3.2-8,7.2-11.7,11.9
	c-2,2.4-4,5.2-5.9,8.2"/>
</svg>
