<svg width="964" height="1582" viewBox="0 0 964 1582" fill="none" xmlns="http://www.w3.org/2000/svg">
<g clip-path="url(#clip0)">
<path d="M516.834 847.29C500.597 945.087 482.073 1021.54 420.013 1038.83C411.176 1043.6 402.448 1048.29 393.75 1053.21C367.795 1067.82 342.582 1083.99 318.172 1108.35C282.639 1135.24 261.674 1215 227.902 1252.17C165.982 1320.51 69.7797 1280.93 33.7984 1161.33C17.345 1106.68 10.1457 1038.05 18.5501 976.698C28.1595 911.462 56.0453 886.064 48.3979 811.796C34.8335 679.915 73.5956 631.908 146.269 581.687C172.393 563.595 180.257 538.542 207.849 476.613C212.446 466.285 217.833 457.271 223.839 449.863C229.755 442.669 236.127 436.872 242.811 432.605C291.909 418.511 418.299 309.756 433.578 409.824C435.277 420.553 420.956 514.351 421.62 527.525C420.075 602.828 435.076 640.048 462.715 684.258C468.632 693.721 517.065 747.912 523.06 770.549C524.79 784.241 519.105 833.628 516.834 847.29Z" stroke="#6A51E1" stroke-width="2.47962" stroke-miterlimit="10" stroke-linecap="round" stroke-dasharray="0.02 12.42"/>
<path d="M516.834 847.29C500.597 945.087 482.073 1021.54 420.013 1038.83C411.176 1043.6 402.448 1048.29 393.75 1053.21C367.795 1067.82 342.582 1083.99 318.172 1108.35C282.639 1135.24 261.674 1215 227.902 1252.17C165.982 1320.51 69.7797 1280.93 33.7984 1161.33C17.345 1106.68 10.1457 1038.05 18.5501 976.698C28.1595 911.462 56.0453 886.064 48.3979 811.796C34.8335 679.915 73.5956 631.908 146.269 581.687C172.393 563.595 180.257 538.542 207.849 476.613C212.446 466.285 217.833 457.271 223.839 449.863C229.755 442.669 236.127 436.872 242.811 432.605C291.909 418.511 418.299 309.756 433.578 409.824C435.277 420.553 420.956 514.351 421.62 527.525C420.075 602.828 435.076 640.048 462.715 684.258C468.632 693.721 517.065 747.912 523.06 770.549C524.79 784.241 519.105 833.628 516.834 847.29Z" stroke="#6A51E1" stroke-width="2.47962" stroke-miterlimit="10" stroke-linecap="round" stroke-dasharray="0.02 12.42"/>
<path d="M154.302 621.669C174.602 606.05 183.764 584.103 202.195 547.401C205.933 539.951 209.919 532.472 214.291 524.39C218.879 515.92 224.168 508.879 229.957 503.536C235.724 498.339 241.84 494.604 248.14 492.433C291.167 484.696 393.101 395.903 412.443 475.175C414.76 484.696 405.367 560.229 406.14 572.195C410.172 634.929 420.816 666.827 441.905 705.802L442.198 706.377C448.27 717.883 485.456 762.725 489.643 782.687C490.74 794.797 485.796 835.325 483.633 847.262C471.722 912.958 458.729 967.177 426.703 993.956C418.978 1000.37 410.203 1004.05 400.315 1008.34C392.73 1011.62 385.484 1016.65 378.161 1020.91C356.271 1033.91 334.911 1049.83 314.248 1068.54C284.894 1094.69 265.814 1157.71 237.743 1190.84C183.98 1254.12 102.207 1229.88 68.2343 1126.1C52.7851 1078.81 44.906 1020.25 50.5141 967.292C56.3848 911.347 77.9674 887.071 70.8916 822.64C57.9606 706.32 93.0303 668.755 154.302 621.669Z" stroke="#6A51E1" stroke-width="2.47962" stroke-miterlimit="10" stroke-linecap="round" stroke-dasharray="0.02 12.4"/>
<path d="M154.302 621.669C174.602 606.05 183.764 584.103 202.195 547.401C205.933 539.951 209.919 532.472 214.291 524.39C218.879 515.92 224.168 508.879 229.957 503.536C235.724 498.339 241.84 494.604 248.14 492.433C291.167 484.696 393.101 395.903 412.443 475.175C414.76 484.696 405.367 560.229 406.14 572.195C410.172 634.929 420.816 666.827 441.905 705.802L442.198 706.377C448.27 717.883 485.456 762.725 489.643 782.687C490.74 794.797 485.796 835.325 483.633 847.262C471.722 912.958 458.729 967.177 426.703 993.956C418.978 1000.37 410.203 1004.05 400.315 1008.34C392.73 1011.62 385.484 1016.65 378.161 1020.91C356.271 1033.91 334.911 1049.83 314.248 1068.54C284.894 1094.69 265.814 1157.71 237.743 1190.84C183.98 1254.12 102.207 1229.88 68.2343 1126.1C52.7851 1078.81 44.906 1020.25 50.5141 967.292C56.3848 911.347 77.9674 887.071 70.8916 822.64C57.9606 706.32 93.0303 668.755 154.302 621.669Z" stroke="#6A51E1" stroke-width="2.47962" stroke-miterlimit="10" stroke-linecap="round" stroke-dasharray="0.02 12.4"/>
<path d="M162.274 661.564C180.813 645.456 190.345 622.157 208.143 591.61C212.16 584.707 216.362 578.552 220.672 572.339C225.268 565.702 230.463 560.647 236.013 557.411C241.623 554.19 247.447 552.447 253.316 552.233C290.271 550.824 369.711 481.992 391.17 540.728C394.259 549.213 389.115 606.309 390.505 617.066C396.948 667 405.955 695.188 420.94 727.576L421.172 728.152C426.054 740.376 453.492 777.309 456.087 794.941C456.582 805.497 452.395 837.166 450.34 847.348C439.711 899.813 428.248 943.188 402 965.538C395.696 970.917 388.481 974.167 380.51 977.993C374.33 980.869 368.413 985.155 362.434 988.808C344.534 999.902 327.071 1013.3 310.169 1028.9C286.084 1050.88 269.831 1100.81 247.43 1129.58C201.855 1188.2 134.496 1178.99 102.516 1090.89C88.1023 1050.94 79.806 1002.64 82.3088 957.915C84.9043 911.232 99.9209 887.818 93.355 833.311C81.1656 732.581 112.311 704.882 162.274 661.564Z" stroke="#6A51E1" stroke-width="2.47962" stroke-miterlimit="10" stroke-linecap="round" stroke-dasharray="0.02 12.37"/>
<path d="M162.274 661.564C180.813 645.456 190.345 622.157 208.143 591.61C212.16 584.707 216.362 578.552 220.672 572.339C225.268 565.702 230.463 560.647 236.013 557.411C241.623 554.19 247.447 552.447 253.316 552.233C290.271 550.824 369.711 481.992 391.17 540.728C394.259 549.213 389.115 606.309 390.505 617.066C396.948 667 405.955 695.188 420.94 727.576L421.172 728.152C426.054 740.376 453.492 777.309 456.087 794.941C456.582 805.497 452.395 837.166 450.34 847.348C439.711 899.813 428.248 943.188 402 965.538C395.696 970.917 388.481 974.167 380.51 977.993C374.33 980.869 368.413 985.155 362.434 988.808C344.534 999.902 327.071 1013.3 310.169 1028.9C286.084 1050.88 269.831 1100.81 247.43 1129.58C201.855 1188.2 134.496 1178.99 102.516 1090.89C88.1023 1050.94 79.806 1002.64 82.3088 957.915C84.9043 911.232 99.9209 887.818 93.355 833.311C81.1656 732.581 112.311 704.882 162.274 661.564Z" stroke="#6A51E1" stroke-width="2.47962" stroke-miterlimit="10" stroke-linecap="round" stroke-dasharray="0.02 12.37"/>
<path d="M170.245 701.574C187.085 684.805 197.096 660.614 214.09 635.964C218.179 630.126 222.508 624.894 227.037 620.317C231.675 615.497 236.778 612.428 242.053 611.285C247.54 610.193 253.081 610.502 258.522 612.205C289.421 617.153 348.359 567.075 369.927 606.309C374.005 613.73 372.8 652.331 374.917 661.966C383.12 699.129 390.52 724.642 400.037 749.35C400.106 749.543 400.168 749.745 400.222 749.954C403.868 763.071 421.651 791.949 422.608 807.223C422.516 816.197 419.101 839.035 417.124 847.492C407.854 886.783 397.828 919.228 377.373 937.177C371.999 941.492 366.451 945.013 360.781 947.704C356.007 950.264 351.418 953.687 346.784 956.736C332.881 965.93 319.318 976.816 306.183 989.325C287.397 1007.13 273.987 1043.98 257.209 1068.45C219.93 1122.62 166.862 1128.25 136.891 1055.83C123.512 1023.21 114.86 985.241 114.196 948.682C113.516 911.433 121.92 888.825 115.833 844.213C104.277 758.871 131.468 740.203 170.245 701.574Z" stroke="#6A51E1" stroke-width="2.47962" stroke-miterlimit="10" stroke-linecap="round" stroke-dasharray="0.02 12.4"/>
<path d="M170.245 701.574C187.085 684.805 197.096 660.614 214.09 635.964C218.179 630.126 222.508 624.894 227.037 620.317C231.675 615.497 236.778 612.428 242.053 611.285C247.54 610.193 253.081 610.502 258.522 612.205C289.421 617.153 348.359 567.075 369.927 606.309C374.005 613.73 372.8 652.331 374.917 661.966C383.12 699.129 390.52 724.642 400.037 749.35C400.106 749.543 400.168 749.745 400.222 749.954C403.868 763.071 421.651 791.949 422.608 807.223C422.516 816.197 419.101 839.035 417.124 847.492C407.854 886.783 397.828 919.228 377.373 937.177C371.999 941.492 366.451 945.013 360.781 947.704C356.007 950.264 351.418 953.687 346.784 956.736C332.881 965.93 319.318 976.816 306.183 989.325C287.397 1007.13 273.987 1043.98 257.209 1068.45C219.93 1122.62 166.862 1128.25 136.891 1055.83C123.512 1023.21 114.86 985.241 114.196 948.682C113.516 911.433 121.92 888.825 115.833 844.213C104.277 758.871 131.468 740.203 170.245 701.574Z" stroke="#6A51E1" stroke-width="2.47962" stroke-miterlimit="10" stroke-linecap="round" stroke-dasharray="0.02 12.4"/>
<path d="M178.218 741.555C193.234 723.722 204.003 699.388 220.039 680.26C224.22 675.248 228.712 671.201 233.418 668.208C238.136 665.196 243.149 664.126 248.11 665.073C253.453 666.18 258.7 668.528 263.729 672.062C288.541 683.337 328.384 649.425 348.7 671.775C354.014 677.527 356.286 698.525 359.329 706.78C368.599 731.804 374.454 755.16 379.119 771.038C379.172 771.241 379.213 771.453 379.243 771.671C381.607 785.736 389.779 806.475 389.084 819.447C387.965 829.175 386.211 838.613 383.862 847.549C376.277 873.781 367.378 895.21 352.701 908.701C348.9 912.013 344.994 914.895 341.006 917.33C337.638 919.516 334.379 922.162 331.088 924.607C321.18 931.899 311.513 940.274 302.136 949.689C288.649 963.323 278.19 987.513 266.927 1007.22C238.176 1057.47 199.167 1077.43 171.142 1020.68C158.783 995.394 149.899 967.752 145.96 939.363C142.098 911.577 143.627 889.803 138.235 855.056C127.313 785.247 150.378 774.604 178.218 741.555Z" stroke="#6A51E1" stroke-width="2.47962" stroke-miterlimit="10" stroke-linecap="round" stroke-dasharray="0.02 12.37"/>
<path d="M178.218 741.555C193.234 723.722 204.003 699.388 220.039 680.26C224.22 675.248 228.712 671.201 233.418 668.208C238.136 665.196 243.149 664.126 248.11 665.073C253.453 666.18 258.7 668.528 263.729 672.062C288.541 683.337 328.384 649.425 348.7 671.775C354.014 677.527 356.286 698.525 359.329 706.78C368.599 731.804 374.454 755.16 379.119 771.038C379.172 771.241 379.213 771.453 379.243 771.671C381.607 785.736 389.779 806.475 389.084 819.447C387.965 829.175 386.211 838.613 383.862 847.549C376.277 873.781 367.378 895.21 352.701 908.701C348.9 912.013 344.994 914.895 341.006 917.33C337.638 919.516 334.379 922.162 331.088 924.607C321.18 931.899 311.513 940.274 302.136 949.689C288.649 963.323 278.19 987.513 266.927 1007.22C238.176 1057.47 199.167 1077.43 171.142 1020.68C158.783 995.394 149.899 967.752 145.96 939.363C142.098 911.577 143.627 889.803 138.235 855.056C127.313 785.247 150.378 774.604 178.218 741.555Z" stroke="#6A51E1" stroke-width="2.47962" stroke-miterlimit="10" stroke-linecap="round" stroke-dasharray="0.02 12.37"/>
<path d="M358.247 793.387C359.313 816.859 356.223 834.002 350.523 847.607C344.822 861.212 336.834 871.193 327.951 880.225C310.169 898.346 288.988 912.814 276.552 945.892C256.251 991.914 231.378 1026.43 205.485 985.413C183.563 950.725 170.57 917.416 160.682 865.757C150.27 811.595 168.855 808.057 186.22 781.537C199.058 761.92 210.939 738.564 226.033 724.556C242.795 708.937 253.563 715.409 268.982 731.948C287.721 749.581 308.207 728.18 327.488 737.27C350.569 747.251 357.583 785.247 358.247 793.387Z" stroke="#6A51E1" stroke-width="2.47962" stroke-miterlimit="10" stroke-linecap="round" stroke-dasharray="0.02 12.32"/>
<path d="M358.247 793.387C359.313 816.859 356.223 834.002 350.523 847.607C344.822 861.212 336.834 871.193 327.951 880.225C310.169 898.346 288.988 912.814 276.552 945.892C256.251 991.914 231.378 1026.43 205.485 985.413C183.563 950.725 170.57 917.416 160.682 865.757C150.27 811.595 168.855 808.057 186.22 781.537C199.058 761.92 210.939 738.564 226.033 724.556C242.795 708.937 253.563 715.409 268.982 731.948C287.721 749.581 308.207 728.18 327.488 737.27C350.569 747.251 357.583 785.247 358.247 793.387Z" stroke="#6A51E1" stroke-width="2.47962" stroke-miterlimit="10" stroke-linecap="round" stroke-dasharray="0.02 12.32"/>
<path d="M770.325 121.872C839.444 203.359 877.697 353.505 879.303 502.932C879.716 524.462 879.407 546.02 878.376 567.478C876.953 589.194 874.534 610.644 871.146 631.592C862.104 687.335 846.983 739.006 826.73 783.378C820.085 798 812.855 811.664 805.101 824.251C785.573 853.015 758.83 882.296 732.196 893.916C725.689 896.822 719.045 898.537 712.359 899.036C673.906 907.809 657.345 831.557 630.478 791C593.4 738.506 544.812 740.75 506.452 691.794C499.565 683.507 492.984 674.369 486.754 664.44C462.329 625.178 445.876 574.899 446.401 508.915C446.846 493.687 448.077 478.574 450.078 463.785C458.096 402.95 477.33 340.504 494 295.288C501.725 276.246 511.937 269.141 521.5 255.565C529.719 245.613 537.907 236.322 545.94 227.29C555.954 217.227 566.324 208.443 576.978 201C587.463 193.699 598.238 187.928 609.205 183.742C618.165 181.384 625.828 183.742 634.789 183.742C639.902 186.13 646.298 188.546 651.412 190.933C688.49 198.182 707.755 126.79 739.735 107.835C749.978 103.089 762.755 105.505 770.309 121.958C775.346 128.516 765.288 115.055 770.325 121.872Z" stroke="#6A51E1" stroke-width="2.47962" stroke-miterlimit="10" stroke-linecap="round" stroke-dasharray="0.02 12.42"/>
<path d="M770.325 121.872C839.444 203.359 877.697 353.505 879.303 502.932C879.716 524.462 879.407 546.02 878.376 567.478C876.953 589.194 874.534 610.644 871.146 631.592C862.104 687.335 846.983 739.006 826.73 783.378C820.085 798 812.855 811.664 805.101 824.251C785.573 853.015 758.83 882.296 732.196 893.916C725.689 896.822 719.045 898.537 712.359 899.036C673.906 907.809 657.345 831.557 630.478 791C593.4 738.506 544.812 740.75 506.452 691.794C499.565 683.507 492.984 674.369 486.754 664.44C462.329 625.178 445.876 574.899 446.401 508.915C446.846 493.687 448.077 478.574 450.078 463.785C458.096 402.95 477.33 340.504 494 295.288C501.725 276.246 511.937 269.141 521.5 255.565C529.719 245.613 537.907 236.322 545.94 227.29C555.954 217.227 566.324 208.443 576.978 201C587.463 193.699 598.238 187.928 609.205 183.742C618.165 181.384 625.828 183.742 634.789 183.742C639.902 186.13 646.298 188.546 651.412 190.933C688.49 198.182 707.755 126.79 739.735 107.835C749.978 103.089 762.755 105.505 770.309 121.958C775.346 128.516 765.288 115.055 770.325 121.872Z" stroke="#6A51E1" stroke-width="2.47962" stroke-miterlimit="10" stroke-linecap="round" stroke-dasharray="0.02 12.42"/>
<path d="M552.165 298.423C558.839 289.794 565.668 281.999 572.45 274.635C580.663 265.874 589.209 258.241 598.019 251.797C606.575 245.067 615.43 239.735 624.483 235.862C631.744 232.986 638.156 234.481 645.479 233.877C649.727 235.229 654.934 236.754 659.198 238.048C690.096 240.723 706.565 185.756 733.555 173.215C741.959 169.303 752.418 171.661 758.953 184.087C762.939 189.063 755.462 179.255 759.587 184.087C787.655 217.56 811.069 262.929 827.913 316.481C844.757 370.034 854.553 430.25 856.5 492.203C857.133 510.058 857.102 527.972 856.407 545.819C855.512 563.939 853.701 581.861 851 599.348C847.462 623.066 842.519 645.978 836.261 667.662C830.363 688.901 823.038 708.657 814.462 726.454C807.946 739.748 800.783 751.89 793.065 762.725C791.814 764.48 790.501 766.12 789.172 767.788C770.494 791.115 746.609 812.63 722.956 821.173C716.759 823.178 710.5 824.446 704.217 824.97C674.338 828.652 661.407 773.512 640.149 743.454C611.537 702.983 574.227 703.185 543.761 667.777C537.489 660.471 531.154 653.222 525.222 644.766C501.909 611.544 484.56 567.104 487.263 506.7C487.845 494.057 489.05 481.54 490.863 469.308C498.17 419.086 514.129 367.686 529.115 331.07C535.588 315.623 544.008 309.037 552.165 298.423Z" stroke="#6A51E1" stroke-width="2.47962" stroke-miterlimit="10" stroke-linecap="round" stroke-dasharray="0.02 12.37"/>
<path d="M552.165 298.423C558.839 289.794 565.668 281.999 572.45 274.635C580.663 265.874 589.209 258.241 598.019 251.797C606.575 245.067 615.43 239.735 624.483 235.862C631.744 232.986 638.156 234.481 645.479 233.877C649.727 235.229 654.934 236.754 659.198 238.048C690.096 240.723 706.565 185.756 733.555 173.215C741.959 169.303 752.418 171.661 758.953 184.087C762.939 189.063 755.462 179.255 759.587 184.087C787.655 217.56 811.069 262.929 827.913 316.481C844.757 370.034 854.553 430.25 856.5 492.203C857.133 510.058 857.102 527.972 856.407 545.819C855.512 563.939 853.701 581.861 851 599.348C847.462 623.066 842.519 645.978 836.261 667.662C830.363 688.901 823.038 708.657 814.462 726.454C807.946 739.748 800.783 751.89 793.065 762.725C791.814 764.48 790.501 766.12 789.172 767.788C770.494 791.115 746.609 812.63 722.956 821.173C716.759 823.178 710.5 824.446 704.217 824.97C674.338 828.652 661.407 773.512 640.149 743.454C611.537 702.983 574.227 703.185 543.761 667.777C537.489 660.471 531.154 653.222 525.222 644.766C501.909 611.544 484.56 567.104 487.263 506.7C487.845 494.057 489.05 481.54 490.863 469.308C498.17 419.086 514.129 367.686 529.115 331.07C535.588 315.623 544.008 309.037 552.165 298.423Z" stroke="#6A51E1" stroke-width="2.47962" stroke-miterlimit="10" stroke-linecap="round" stroke-dasharray="0.02 12.37"/>
<path d="M582.847 341.309C588.193 334.435 593.662 328.049 598.961 321.98C605.435 314.756 612.143 308.282 619.045 302.593C625.734 296.757 632.655 291.892 639.747 288.039C645.37 285.163 650.453 285.163 656.154 283.983C659.537 284.329 663.554 284.702 666.968 285.105C691.533 283.178 705.669 246.562 727.359 238.537C734.003 236.092 742.052 237.76 747.567 246.159C750.502 249.496 745.775 243.11 748.818 246.159C795.799 295.057 828.552 383.189 833.681 481.302C834.492 495.467 834.74 509.725 834.422 523.958C833.973 538.443 832.778 552.814 830.854 566.874C828.364 586.139 824.64 604.777 819.761 622.387C814.864 639.646 809.935 655.437 802.242 669.502C795.768 681.296 788.695 691.892 781.123 701.142C779.866 702.676 778.584 704.162 777.276 705.601C758.999 725.361 736.243 742.13 713.81 748.343C707.955 749.689 702.066 750.485 696.167 750.731C675.048 752.715 665.269 716.214 649.82 695.735C629.211 668.352 603.148 666.971 581.071 643.586C575.432 637.603 569.422 632.081 563.814 625.178C541.613 597.967 523.893 559.424 528.281 504.514C529.049 494.533 530.226 484.677 531.803 475.031C538.415 435.395 551.594 395.759 564.401 367.024C569.716 355.317 576.374 349.622 582.847 341.309Z" stroke="#6A51E1" stroke-width="2.47962" stroke-miterlimit="10" stroke-linecap="round" stroke-dasharray="0.02 12.35"/>
<path d="M582.847 341.309C588.193 334.435 593.662 328.049 598.961 321.98C605.435 314.756 612.143 308.282 619.045 302.593C625.734 296.757 632.655 291.892 639.747 288.039C645.37 285.163 650.453 285.163 656.154 283.983C659.537 284.329 663.554 284.702 666.968 285.105C691.533 283.178 705.669 246.562 727.359 238.537C734.003 236.092 742.052 237.76 747.567 246.159C750.502 249.496 745.775 243.11 748.818 246.159C795.799 295.057 828.552 383.189 833.681 481.302C834.492 495.467 834.74 509.725 834.422 523.958C833.973 538.443 832.778 552.814 830.854 566.874C828.364 586.139 824.64 604.777 819.761 622.387C814.864 639.646 809.935 655.437 802.242 669.502C795.768 681.296 788.695 691.892 781.123 701.142C779.866 702.676 778.584 704.162 777.276 705.601C758.999 725.361 736.243 742.13 713.81 748.343C707.955 749.689 702.066 750.485 696.167 750.731C675.048 752.715 665.269 716.214 649.82 695.735C629.211 668.352 603.148 666.971 581.071 643.586C575.432 637.603 569.422 632.081 563.814 625.178C541.613 597.967 523.893 559.424 528.281 504.514C529.049 494.533 530.226 484.677 531.803 475.031C538.415 435.395 551.594 395.759 564.401 367.024C569.716 355.317 576.374 349.622 582.847 341.309Z" stroke="#6A51E1" stroke-width="2.47962" stroke-miterlimit="10" stroke-linecap="round" stroke-dasharray="0.02 12.35"/>
<path d="M613.545 384.196C617.562 379.162 621.517 374.129 625.488 369.325C630.277 363.572 635.174 358.309 640.133 353.39C644.969 348.46 649.957 344.071 655.073 340.245C658.939 337.742 662.887 335.695 666.891 334.118C669.394 333.428 672.237 332.795 674.786 332.22C693.093 325.719 704.788 307.397 721.211 303.917C726.343 302.657 731.562 304.174 736.243 308.289C738.128 309.986 736.243 306.966 738.128 308.519C775.314 338.088 804.343 398.233 810.925 470.717C811.901 481.168 812.418 491.75 812.47 502.357C812.467 513.214 811.888 524.043 810.739 534.687C809.26 549.377 806.725 563.628 803.2 577.056C799.569 590.604 796.433 602.08 789.96 612.522C783.5 622.783 776.514 631.839 769.103 639.56C767.852 640.883 766.585 642.206 765.288 643.414C746.198 660.574 725.656 671.445 704.572 675.543C699.026 676.578 693.51 676.435 688.057 676.693C675.698 677.297 668.993 658.86 659.569 648.217C646.962 633.836 631.837 631.765 618.458 619.598C613.406 614.995 607.767 610.968 602.406 605.705C581.318 584.506 562.872 551.945 569.237 502.472C570.142 495.126 571.293 487.892 572.682 480.813C578.897 451.941 588.046 425.572 599.626 403.151C603.812 394.982 608.725 390.236 613.545 384.196Z" stroke="#6A51E1" stroke-width="2.47962" stroke-miterlimit="10" stroke-linecap="round" stroke-dasharray="0.02 12.4"/>
<path d="M613.545 384.196C617.562 379.162 621.517 374.129 625.488 369.325C630.277 363.572 635.174 358.309 640.133 353.39C644.969 348.46 649.957 344.071 655.073 340.245C658.939 337.742 662.887 335.695 666.891 334.118C669.394 333.428 672.237 332.795 674.786 332.22C693.093 325.719 704.788 307.397 721.211 303.917C726.343 302.657 731.562 304.174 736.243 308.289C738.128 309.986 736.243 306.966 738.128 308.519C775.314 338.088 804.343 398.233 810.925 470.717C811.901 481.168 812.418 491.75 812.47 502.357C812.467 513.214 811.888 524.043 810.739 534.687C809.26 549.377 806.725 563.628 803.2 577.056C799.569 590.604 796.433 602.08 789.96 612.522C783.5 622.783 776.514 631.839 769.103 639.56C767.852 640.883 766.585 642.206 765.288 643.414C746.198 660.574 725.656 671.445 704.572 675.543C699.026 676.578 693.51 676.435 688.057 676.693C675.698 677.297 668.993 658.86 659.569 648.217C646.962 633.836 631.837 631.765 618.458 619.598C613.406 614.995 607.767 610.968 602.406 605.705C581.318 584.506 562.872 551.945 569.237 502.472C570.142 495.126 571.293 487.892 572.682 480.813C578.897 451.941 588.046 425.572 599.626 403.151C603.812 394.982 608.725 390.236 613.545 384.196Z" stroke="#6A51E1" stroke-width="2.47962" stroke-miterlimit="10" stroke-linecap="round" stroke-dasharray="0.02 12.4"/>
<path d="M724.889 370.447C767.667 374.618 803.417 455.702 786.685 531.84C784.121 541.361 782.839 548.494 777.709 555.627C770.051 565.636 761.886 574.229 753.331 581.284C730.945 595.666 704.727 605.331 679.947 602.627C671.785 601.819 663.688 599.458 655.784 595.58C633.182 583.902 598.668 555.138 610.225 500.487C616.899 469.736 628.849 443.958 644.213 427.169C656.866 410.745 668.808 392.135 682.573 379.45C697.945 365.298 708.713 368.865 724.889 370.447Z" stroke="#6A51E1" stroke-width="2.47962" stroke-miterlimit="10" stroke-linecap="round" stroke-dasharray="0.02 12.4"/>
<path d="M724.889 370.447C767.667 374.618 803.417 455.702 786.685 531.84C784.121 541.361 782.839 548.494 777.709 555.627C770.051 565.636 761.886 574.229 753.331 581.284C730.945 595.666 704.727 605.331 679.947 602.627C671.785 601.819 663.688 599.458 655.784 595.58C633.182 583.902 598.668 555.138 610.225 500.487C616.899 469.736 628.849 443.958 644.213 427.169C656.866 410.745 668.808 392.135 682.573 379.45C697.945 365.298 708.713 368.865 724.889 370.447Z" stroke="#6A51E1" stroke-width="2.47962" stroke-miterlimit="10" stroke-linecap="round" stroke-dasharray="0.02 12.4"/>
<path d="M467.133 1138.64V1138.41C470.649 1100.8 477.861 1064.72 488.407 1031.98C496.719 1006.27 506.143 981.875 514.671 956.362C527.663 917.445 534.569 785.88 561.482 778.027C600.105 766.522 629.458 839.467 651.705 886.84C682.835 953.284 728.874 990.85 739.287 1082.84C756.837 1237.9 710.798 1481.96 599.44 1384.25C592.087 1371.77 588.255 1356.41 584.625 1341.1C583.42 1335.98 582.23 1330.89 580.932 1325.89C579.387 1308 569.083 1298.48 562.3 1284.41C559.211 1280.18 555.966 1276.27 552.66 1272.56C549.354 1268.85 545.94 1265.34 542.572 1261.92C539.059 1257.48 535.412 1253.41 531.649 1249.75C528.705 1246.26 525.604 1243.24 522.38 1240.75C519.074 1238.13 515.598 1235.8 512.091 1233.56C495.668 1222.05 474.286 1210.75 467.164 1177.04C464.584 1164.93 465.975 1151.15 467.133 1138.64Z" stroke="#6A51E1" stroke-width="2.47962" stroke-miterlimit="10" stroke-linecap="round" stroke-dasharray="0.02 12.4"/>
<path d="M467.133 1138.64V1138.41C470.649 1100.8 477.861 1064.72 488.407 1031.98C496.719 1006.27 506.143 981.875 514.671 956.362C527.663 917.445 534.569 785.88 561.482 778.027C600.105 766.522 629.458 839.467 651.705 886.84C682.835 953.284 728.874 990.85 739.287 1082.84C756.837 1237.9 710.798 1481.96 599.44 1384.25C592.087 1371.77 588.255 1356.41 584.625 1341.1C583.42 1335.98 582.23 1330.89 580.932 1325.89C579.387 1308 569.083 1298.48 562.3 1284.41C559.211 1280.18 555.966 1276.27 552.66 1272.56C549.354 1268.85 545.94 1265.34 542.572 1261.92C539.059 1257.48 535.412 1253.41 531.649 1249.75C528.705 1246.26 525.604 1243.24 522.38 1240.75C519.074 1238.13 515.598 1235.8 512.091 1233.56C495.668 1222.05 474.286 1210.75 467.164 1177.04C464.584 1164.93 465.975 1151.15 467.133 1138.64Z" stroke="#6A51E1" stroke-width="2.47962" stroke-miterlimit="10" stroke-linecap="round" stroke-dasharray="0.02 12.4"/>
<path d="M543.947 991.511C549.663 977.13 554.236 946.611 560.122 919.602C565.838 893.226 572.682 869.755 582.91 867.396C614.982 860.004 639.655 920.063 656.556 962.058C664.96 980.955 674.74 997.149 684.102 1013.49C692.923 1028.96 701.39 1044.58 708.048 1062.64C713.503 1077.29 717.447 1093.69 719.682 1111.02C725.753 1158.25 725.32 1214.57 716.839 1263.27C705.437 1328.59 676.084 1375.53 636.194 1357.64C629.116 1354.29 622.28 1349.36 615.832 1342.97C610.085 1333.11 606.809 1321.23 603.72 1309.29C602.7 1305.32 601.696 1301.35 600.63 1297.47C598.884 1283.66 591.453 1275.35 586.324 1263.99C584.037 1260.39 581.689 1257 579.202 1253.75C576.714 1250.5 574.273 1247.36 571.786 1244.29C569.203 1240.46 566.517 1236.88 563.737 1233.56C561.575 1230.53 559.292 1227.8 556.908 1225.42L555.765 1224.27C553.633 1222.2 551.393 1220.35 549.168 1218.51C538.354 1209.31 524.759 1200.51 516.864 1182.53C515.58 1179.62 514.466 1176.45 513.543 1173.1C511.055 1164.12 511.364 1154.14 511.287 1144.71C511.071 1119.94 511.874 1094.77 517.219 1069.4C518.251 1064.5 519.422 1059.7 520.726 1055.02C526.983 1032.38 535.913 1011.76 543.947 991.511Z" stroke="#6A51E1" stroke-width="2.47962" stroke-miterlimit="10" stroke-linecap="round" stroke-dasharray="0.02 12.4"/>
<path d="M543.947 991.511C549.663 977.13 554.236 946.611 560.122 919.602C565.838 893.226 572.682 869.755 582.91 867.396C614.982 860.004 639.655 920.063 656.556 962.058C664.96 980.955 674.74 997.149 684.102 1013.49C692.923 1028.96 701.39 1044.58 708.048 1062.64C713.503 1077.29 717.447 1093.69 719.682 1111.02C725.753 1158.25 725.32 1214.57 716.839 1263.27C705.437 1328.59 676.084 1375.53 636.194 1357.64C629.116 1354.29 622.28 1349.36 615.832 1342.97C610.085 1333.11 606.809 1321.23 603.72 1309.29C602.7 1305.32 601.696 1301.35 600.63 1297.47C598.884 1283.66 591.453 1275.35 586.324 1263.99C584.037 1260.39 581.689 1257 579.202 1253.75C576.714 1250.5 574.273 1247.36 571.786 1244.29C569.203 1240.46 566.517 1236.88 563.737 1233.56C561.575 1230.53 559.292 1227.8 556.908 1225.42L555.765 1224.27C553.633 1222.2 551.393 1220.35 549.168 1218.51C538.354 1209.31 524.759 1200.51 516.864 1182.53C515.58 1179.62 514.466 1176.45 513.543 1173.1C511.055 1164.12 511.364 1154.14 511.287 1144.71C511.071 1119.94 511.874 1094.77 517.219 1069.4C518.251 1064.5 519.422 1059.7 520.726 1055.02C526.983 1032.38 535.913 1011.76 543.947 991.511Z" stroke="#6A51E1" stroke-width="2.47962" stroke-miterlimit="10" stroke-linecap="round" stroke-dasharray="0.02 12.4"/>
<path d="M573.207 1026.55C577.981 1017.26 582.183 999.738 587.112 984.608C591.854 970.227 597.153 957.427 604.276 956.535C629.767 953.342 649.743 1000.4 661.345 1037.07C666.505 1049.96 672.299 1061.49 677.814 1073.06C683.122 1083.73 687.958 1095.19 692.274 1107.31C695.631 1117.14 698.231 1127.79 699.999 1138.95C705.344 1172.69 707.276 1210.86 703.089 1246.3C697.404 1293.9 673.38 1326.58 646.267 1313.2C641.261 1310.69 636.483 1306.81 632.084 1301.7C628.285 1294.58 625.11 1286.4 622.676 1277.45C621.841 1274.57 621.023 1271.7 620.188 1268.99C618.304 1259.27 613.669 1252.2 610.224 1243.54C608.679 1240.66 607.134 1237.79 605.589 1234.91C604.044 1232.03 602.499 1229.36 600.846 1226.63C599.208 1223.43 597.463 1220.36 595.655 1217.36C594.256 1214.79 592.781 1212.36 591.236 1210.09L590.495 1208.99C589.074 1206.98 587.56 1205.17 586.046 1203.24C578.506 1194.27 569.206 1186.87 562.64 1174.99C561.583 1173.1 560.602 1171.06 559.705 1168.9C557.325 1163.14 556.46 1156.76 555.193 1150.78C551.362 1132.68 547.917 1112.78 550.636 1090.37C551.162 1086.12 551.881 1081.95 552.783 1077.92C557.202 1058.5 565.544 1041.47 573.207 1026.55Z" stroke="#6A51E1" stroke-width="2.47962" stroke-miterlimit="10" stroke-linecap="round" stroke-dasharray="0.02 12.32"/>
<path d="M573.207 1026.55C577.981 1017.26 582.183 999.738 587.112 984.608C591.854 970.227 597.153 957.427 604.276 956.535C629.767 953.342 649.743 1000.4 661.345 1037.07C666.505 1049.96 672.299 1061.49 677.814 1073.06C683.122 1083.73 687.958 1095.19 692.274 1107.31C695.631 1117.14 698.231 1127.79 699.999 1138.95C705.344 1172.69 707.276 1210.86 703.089 1246.3C697.404 1293.9 673.38 1326.58 646.267 1313.2C641.261 1310.69 636.483 1306.81 632.084 1301.7C628.285 1294.58 625.11 1286.4 622.676 1277.45C621.841 1274.57 621.023 1271.7 620.188 1268.99C618.304 1259.27 613.669 1252.2 610.224 1243.54C608.679 1240.66 607.134 1237.79 605.589 1234.91C604.044 1232.03 602.499 1229.36 600.846 1226.63C599.208 1223.43 597.463 1220.36 595.655 1217.36C594.256 1214.79 592.781 1212.36 591.236 1210.09L590.495 1208.99C589.074 1206.98 587.56 1205.17 586.046 1203.24C578.506 1194.27 569.206 1186.87 562.64 1174.99C561.583 1173.1 560.602 1171.06 559.705 1168.9C557.325 1163.14 556.46 1156.76 555.193 1150.78C551.362 1132.68 547.917 1112.78 550.636 1090.37C551.162 1086.12 551.881 1081.95 552.783 1077.92C557.202 1058.5 565.544 1041.47 573.207 1026.55Z" stroke="#6A51E1" stroke-width="2.47962" stroke-miterlimit="10" stroke-linecap="round" stroke-dasharray="0.02 12.32"/>
<path d="M614.164 1049.87C617.812 1047.02 621.749 1045.67 625.704 1045.9C644.614 1047.66 659.893 1080.97 666.196 1112.2C668.097 1119.08 669.889 1125.98 671.604 1132.71C673.319 1139.44 674.972 1145.94 676.563 1152.04C677.876 1157.07 679.158 1162.11 680.394 1167.11C685.338 1187.25 689.308 1207.38 689.308 1229.53C689.308 1259.3 670.661 1277.48 656.294 1268.94C653.355 1267.21 650.652 1264.33 648.368 1260.48C638.141 1241.44 633.027 1217.62 625.349 1193.81C620.868 1181.9 614.797 1174.76 608.555 1167.92C605.466 1164.5 602.283 1161.13 599.286 1157.3C591.067 1146.86 584.161 1131.22 584.254 1111.83C584.347 1090.43 593.369 1072.71 602.468 1061.75C606.149 1057.09 610.066 1053.11 614.164 1049.87V1049.87Z" stroke="#6A51E1" stroke-width="2.47962" stroke-miterlimit="10" stroke-linecap="round" stroke-dasharray="0.02 12.5"/>
<path d="M614.164 1049.87C617.812 1047.02 621.749 1045.67 625.704 1045.9C644.614 1047.66 659.893 1080.97 666.196 1112.2C668.097 1119.08 669.889 1125.98 671.604 1132.71C673.319 1139.44 674.972 1145.94 676.563 1152.04C677.876 1157.07 679.158 1162.11 680.394 1167.11C685.338 1187.25 689.308 1207.38 689.308 1229.53C689.308 1259.3 670.661 1277.48 656.294 1268.94C653.355 1267.21 650.652 1264.33 648.368 1260.48C638.141 1241.44 633.027 1217.62 625.349 1193.81C620.868 1181.9 614.797 1174.76 608.555 1167.92C605.466 1164.5 602.283 1161.13 599.286 1157.3C591.067 1146.86 584.161 1131.22 584.254 1111.83C584.347 1090.43 593.369 1072.71 602.468 1061.75C606.149 1057.09 610.066 1053.11 614.164 1049.87V1049.87Z" stroke="#6A51E1" stroke-width="2.47962" stroke-miterlimit="10" stroke-linecap="round" stroke-dasharray="0.02 12.5"/>
<path d="M846.482 967.12C847.89 967.12 849.031 966.008 849.031 964.636C849.031 963.264 847.89 962.151 846.482 962.151C845.074 962.151 843.933 963.264 843.933 964.636C843.933 966.008 845.074 967.12 846.482 967.12Z" fill="#F2D956"/>
<path d="M586.24 894.376C587.647 894.376 588.789 893.263 588.789 891.891C588.789 890.519 587.647 889.407 586.24 889.407C584.832 889.407 583.69 890.519 583.69 891.891C583.69 893.263 584.832 894.376 586.24 894.376Z" fill="#F2D956"/>
<path d="M583.549 869.969C584.957 869.969 586.098 868.857 586.098 867.485C586.098 866.112 584.957 865 583.549 865C582.141 865 581 866.112 581 867.485C581 868.857 582.141 869.969 583.549 869.969Z" fill="#F2D956"/>
<path d="M613.549 386.969C614.957 386.969 616.098 385.857 616.098 384.485C616.098 383.112 614.957 382 613.549 382C612.141 382 611 383.112 611 384.485C611 385.857 612.141 386.969 613.549 386.969Z" fill="#F2D956"/>
<path d="M529.549 332.969C530.957 332.969 532.098 331.857 532.098 330.485C532.098 329.112 530.957 328 529.549 328C528.141 328 527 329.112 527 330.485C527 331.857 528.141 332.969 529.549 332.969Z" fill="#F2D956"/>
<path d="M938.452 775.916C939.859 775.916 941.001 774.803 941.001 773.431C941.001 772.059 939.859 770.947 938.452 770.947C937.044 770.947 935.902 772.059 935.902 773.431C935.902 774.803 937.044 775.916 938.452 775.916Z" fill="#F2D956"/>
<path d="M880.069 627.671C881.476 627.671 882.618 626.559 882.618 625.187C882.618 623.815 881.476 622.702 880.069 622.702C878.661 622.702 877.52 623.815 877.52 625.187C877.52 626.559 878.661 627.671 880.069 627.671Z" fill="#F2D956"/>
<path d="M437.449 734.1C438.856 734.1 439.998 732.988 439.998 731.615C439.998 730.243 438.856 729.131 437.449 729.131C436.041 729.131 434.899 730.243 434.899 731.615C434.899 732.988 436.041 734.1 437.449 734.1Z" fill="#F2D956"/>
<path d="M414.549 861.969C415.957 861.969 417.098 860.857 417.098 859.485C417.098 858.112 415.957 857 414.549 857C413.141 857 412 858.112 412 859.485C412 860.857 413.141 861.969 414.549 861.969Z" fill="#F2D956"/>
<path d="M481.549 982.969C482.957 982.969 484.098 981.857 484.098 980.485C484.098 979.112 482.957 978 481.549 978C480.141 978 479 979.112 479 980.485C479 981.857 480.141 982.969 481.549 982.969Z" fill="#F2D956"/>
<path d="M77.6673 1092.39C79.0751 1092.39 80.2164 1091.27 80.2164 1089.9C80.2164 1088.53 79.0751 1087.42 77.6673 1087.42C76.2594 1087.42 75.1182 1088.53 75.1182 1089.9C75.1182 1091.27 76.2594 1092.39 77.6673 1092.39Z" fill="#F2D956"/>
<path d="M525.169 1101C526.577 1101 527.718 1099.89 527.718 1098.52C527.718 1097.14 526.577 1096.03 525.169 1096.03C523.761 1096.03 522.62 1097.14 522.62 1098.52C522.62 1099.89 523.761 1101 525.169 1101Z" fill="#F2D956"/>
<path d="M692.237 1096C693.644 1096 694.786 1094.89 694.786 1093.52C694.786 1092.14 693.644 1091.03 692.237 1091.03C690.829 1091.03 689.688 1092.14 689.688 1093.52C689.688 1094.89 690.829 1096 692.237 1096Z" fill="#F2D956"/>
<path d="M730.844 1085.42C732.252 1085.42 733.393 1084.3 733.393 1082.93C733.393 1081.56 732.252 1080.45 730.844 1080.45C729.436 1080.45 728.295 1081.56 728.295 1082.93C728.295 1084.3 729.436 1085.42 730.844 1085.42Z" fill="#F2D956"/>
<path d="M10.7718 827.308C12.1796 827.308 13.3209 826.196 13.3209 824.824C13.3209 823.452 12.1796 822.339 10.7718 822.339C9.36394 822.339 8.22266 823.452 8.22266 824.824C8.22266 826.196 9.36394 827.308 10.7718 827.308Z" fill="#F2D956"/>
<path d="M36.7571 690.131C38.165 690.131 39.3063 689.019 39.3063 687.647C39.3063 686.274 38.165 685.162 36.7571 685.162C35.3493 685.162 34.208 686.274 34.208 687.647C34.208 689.019 35.3493 690.131 36.7571 690.131Z" fill="#F2D956"/>
<path d="M435.549 696.969C436.957 696.969 438.098 695.857 438.098 694.485C438.098 693.112 436.957 692 435.549 692C434.141 692 433 693.112 433 694.485C433 695.857 434.141 696.969 435.549 696.969Z" fill="#F2D956"/>
<path d="M506.549 693.969C507.957 693.969 509.098 692.857 509.098 691.485C509.098 690.112 507.957 689 506.549 689C505.141 689 504 690.112 504 691.485C504 692.857 505.141 693.969 506.549 693.969Z" fill="#F2D956"/>
<path d="M435.054 666.701C436.462 666.701 437.603 665.589 437.603 664.216C437.603 662.844 436.462 661.732 435.054 661.732C433.646 661.732 432.505 662.844 432.505 664.216C432.505 665.589 433.646 666.701 435.054 666.701Z" fill="#F2D956"/>
<path d="M338.5 667C339.881 667 341 665.881 341 664.5C341 663.119 339.881 662 338.5 662C337.119 662 336 663.119 336 664.5C336 665.881 337.119 667 338.5 667Z" fill="#F2D956"/>
<path d="M88.4964 690.914C89.9042 690.914 91.0455 689.802 91.0455 688.429C91.0455 687.057 89.9042 685.945 88.4964 685.945C87.0885 685.945 85.9473 687.057 85.9473 688.429C85.9473 689.802 87.0885 690.914 88.4964 690.914Z" fill="#F2D956"/>
<path d="M57.3353 787.029C58.7431 787.029 59.8844 785.916 59.8844 784.544C59.8844 783.172 58.7431 782.06 57.3353 782.06C55.9274 782.06 54.7861 783.172 54.7861 784.544C54.7861 785.916 55.9274 787.029 57.3353 787.029Z" fill="#F2D956"/>
<path d="M116.63 881.998C118.038 881.998 119.179 880.886 119.179 879.514C119.179 878.142 118.038 877.029 116.63 877.029C115.222 877.029 114.081 878.142 114.081 879.514C114.081 880.886 115.222 881.998 116.63 881.998Z" fill="#F2D956"/>
<path d="M281.967 1085.07C283.375 1085.07 284.516 1083.96 284.516 1082.58C284.516 1081.21 283.375 1080.1 281.967 1080.1C280.559 1080.1 279.418 1081.21 279.418 1082.58C279.418 1083.96 280.559 1085.07 281.967 1085.07Z" fill="#F2D956"/>
</g>
<defs>
<clipPath id="clip0">
<path d="M0.953125 0H963.047V1582H0.953125V0Z" fill="white"/>
</clipPath>
</defs>
</svg>
