<?xml version="1.0" encoding="utf-8"?>
<!-- Generator: Adobe Illustrator 24.1.2, SVG Export Plug-In . SVG Version: 6.00 Build 0)  -->
<svg width="1600" height="900" version="1.1" id="Ebene_1" xmlns="http://www.w3.org/2000/svg" xmlns:xlink="http://www.w3.org/1999/xlink" x="0px" y="0px"
	 viewBox="0 0 1600 800" style="enable-background:new 0 0 1600 800;" xml:space="preserve">
<style type="text/css">
	
		.st0{fill:none;stroke:#6A51E1;stroke-width:4;stroke-linecap:round;stroke-linejoin:round;stroke-miterlimit:10;stroke-dasharray:0.5,12;}
</style>
<path class="st0" d="M1472.4,800c57-104.8,107.2-221.4-24.1-241.5c-21.3-3.4-207.1,25-233.2,23.7c-149.2,3.1-223-26.7-310.6-81.4
	c-18.8-11.7-126.1-107.7-171-119.6c-27.1-3.4-125,7.8-152.1,12.3c-193.8,32.2-345.3,68.9-379.5,191.8c-9.5,17.5-18.8,34.8-28.5,52
	c-29,51.4-61,101.4-109.3,149.8c-3.3,4.4-7,8.6-11.1,12.8"/>
<path class="st0" d="M1341.3,800c42.5-84.6,77.3-175.2-22.6-199.6c-18.9-4.6-168.5,14-192.2,12.5c-124.3-8-187.5-29.1-264.7-70.9
	l-1.1-0.6c-22.8-12-111.7-85.7-151.2-94c-24-2.2-104.3,7.6-128,11.9C451.3,483,343.8,508.7,290.8,572.2
	c-12.7,15.3-20,32.7-28.5,52.3c-6.5,15-16.5,29.4-24.9,43.9c-25.8,43.4-57.3,85.7-94.4,126.6c-1.5,1.7-3.1,3.4-4.7,5"/>
<path class="st0" d="M1208.9,800c28.7-65.2,49.7-131.9-20-157.4c-16.8-6.1-129.9,4.1-151.3,1.3c-98.9-12.8-154.8-30.6-219-60.3
	l-1.1-0.5c-24.2-9.7-97.4-64-132.3-69.2c-20.9-1-83.7,7.3-103.8,11.4c-104,21.1-189.9,43.8-234.2,95.8
	c-10.7,12.5-17.1,26.8-24.7,42.6c-5.7,12.2-14.2,24-21.4,35.8c-21.3,34.4-46.9,68-76.6,100.5"/>
<path class="st0" d="M1074.4,800c16.6-46.5,27-92-15.5-115.3c-14.7-8.1-91.2-5.7-110.3-9.9C875,658.5,824.4,643.9,775.5,625
	c-0.4-0.1-0.8-0.3-1.2-0.4c-26-7.2-83.2-42.5-113.5-44.4c-17.8,0.2-63,6.9-79.8,10.9c-77.9,18.4-142.1,38.2-177.7,78.8
	c-8.6,10.6-15.5,21.6-20.9,32.9c-5.1,9.5-11.9,18.6-17.9,27.7c-15.7,23.7-33.8,46.9-54.4,69.5"/>
<path class="st0" d="M939.1,800c7.2-28.2,10.4-54.8-10-73.3c-11.4-10.5-53-15-69.4-21.1c-49.6-18.4-95.9-30-127.3-39.2
	c-0.4-0.1-0.8-0.2-1.3-0.2c-27.9-4.7-69-20.9-94.7-19.5c-19.3,2.2-38,5.7-55.7,10.3c-52,15-94.4,32.7-121.2,61.7
	c-6.6,7.5-12.3,15.3-17.1,23.2c-4.3,6.7-9.6,13.1-14.4,19.7c-9.6,13-20.1,25.8-31.6,38.4"/>
<path class="st0" d="M808.5,800c1.2-10.5,0.7-21-4.1-31.2c-19.8-45.7-95.1-59.6-111.2-60.9c-46.5-2.1-80.5,4-107.4,15.3
	c-27,11.3-46.7,27.1-64.6,44.7c-10.5,10.3-20.5,21.3-30.9,32.2"/>
<path class="st0" d="M1600,0"/>
<path class="st0" d="M495.5,0c-0.3,2-0.5,4.1-0.7,6.1c-17.4,76.2,133.7,109,214.1,162.2c104,73.5,99.6,169.7,196.6,245.8
	c16.4,13.6,34.5,26.7,54.2,39c77.8,48.4,177.4,81,308.2,80c30.2-0.9,60.1-3.3,89.4-7.3c83.5-11,168.5-32.7,242.7-55.9"/>
<path class="st0" d="M1600,0"/>
<path class="st0" d="M650.1,0c-1.7,7.4-2.8,14.8-3.5,22.3c-7.3,59.2,102,84.8,161.5,126.9c80.2,56.7,79.8,130.6,150,191
	c14.5,12.4,28.8,25,45.6,36.7c65.8,46.2,153.9,80.6,273.6,75.2c25-1.2,49.8-3.5,74.1-7.1c88.4-12.9,178.7-39.3,248.6-65.8"/>
<path class="st0" d="M1600,0"/>
<path class="st0" d="M810.4,0c-0.3,1.1-0.7,2.2-1,3.3c-2.7,11.6-4.2,23.3-4.7,35c-3.9,41.8,68.4,61.2,109,91.8
	c54.3,40.8,57,92.5,103.3,136.2c11.9,11.2,22.8,23.1,36.5,34.2c53.9,44,130.3,79.1,239.1,70.4c19.8-1.5,39.3-3.9,58.4-7
	c78.5-13.1,157.1-39.2,214-64.6c15.1-6.9,25.2-14.9,35-23.2"/>
<path class="st0" d="M1600,0"/>
<path class="st0" d="M964.1,0c-2.2,7.2-4,14.3-5.4,21.6c-2.1,11-1.8,21.9-2.3,32.7c-1.2,24.5,35.3,37.8,56.4,56.4
	c28.5,25,32.6,54.9,56.7,81.5c9.1,10,17.1,21.2,27.5,31.8c42,41.8,106.5,78.3,204.6,65.7c14.5-1.8,28.9-4.1,42.9-6.8
	c57.2-12.3,109.5-30.4,153.9-53.4c16.2-8.3,25.6-18,37.6-27.6c10-8,19.9-15.8,29.5-23.7c11.4-9.5,21.8-19.2,31.6-29c1-1,2-2,2.9-2.9
	"/>
<path class="st0" d="M1121.4,0c-6.8,23.4-9.7,47.2-7.2,70.4c1.6,16.2,6.3,32.2,14,47.9c23.1,44.8,80.1,113.2,188.4,90.3
	c60.9-13.2,112-36.9,145.3-67.3c32.5-25.1,69.4-48.7,94.6-76c22.2-24.2,22.4-42.6,19.9-65.2"/>
<path class="st0" d="M0,492.4c1.4-0.1,2.7-0.3,4.1-0.4h0.5c74.5-7,146-21.3,210.9-42.2c51-16.5,99.3-35.1,149.8-52
	c77.1-25.7,337.8-39.4,353.4-92.8c22.8-76.5-121.7-134.7-215.6-178.8C420.4,87.6,360.3,37.2,281.9,0"/>
<path class="st0" d="M0,0"/>
<path class="st0" d="M0,404.6c46.5,0.2,93.7-1.8,141.3-11.8c9.7-2,19.2-4.4,28.5-6.9c44.9-12.4,85.7-30.1,125.8-46
	c28.5-11.3,89-20.4,142.5-32.1c52.3-11.3,98.8-24.9,103.4-45.2c14.6-63.6-104.4-112.4-187.6-145.9c-37.4-16.7-69.5-36-101.9-54.6
	c-30.7-17.5-61.6-34.3-97.4-47.4C139.2,8.9,122.7,4,105.4,0"/>
<path class="st0" d="M0,0"/>
<path class="st0" d="M0,321.6c30.4,5.7,63.4,9.4,99.7,5c8.4-1,16.7-2.5,24.7-4.3c38.5-8.8,72.2-25.3,101.8-40.5
	c18.4-9.5,53.1-17.8,83.1-27.6c28.5-9.4,53.9-19.9,55.6-34c6.3-50.5-86.9-90.1-159.6-113.1C179.8,97,157,85.5,134,74.6
	c-21.2-10.5-43.9-20.1-67.9-28.7C46.7,39.3,25.6,34.1,3.5,30.6c-1.2-0.2-2.3-0.4-3.5-0.5"/>
<path class="st0" d="M0,249.2c16.4,6.7,35.6,10.9,57.2,10.8c42.4-0.2,77.5-18.1,99.2-36.1c9.2-7.3,17.1-15.1,23.5-23.2
	c5.7-7.2,8.3-15,7.9-22.9c-3.5-37.5-69.5-67.7-131.4-80.2c-13.6-3.8-27.3-7.3-40.6-10.7c-5.4-1.4-10.6-2.7-15.8-4"/>
</svg>
